<mxfile host="www.draw.io" modified="2020-03-08T20:56:55.029Z" agent="Mozilla/5.0 (Windows NT 10.0; Win64; x64) AppleWebKit/537.36 (KHTML, like Gecko) Chrome/80.0.3987.132 Safari/537.36" etag="nQWzB3Y0u8KZFQzB3iIH" version="12.8.1" type="github">
  <diagram name="Page-1" id="e7e014a7-5840-1c2e-5031-d8a46d1fe8dd">
    <mxGraphModel dx="1008" dy="508" grid="1" gridSize="10" guides="1" tooltips="1" connect="1" arrows="1" fold="1" page="1" pageScale="1" pageWidth="1169" pageHeight="826" background="#ffffff" math="0" shadow="0">
      <root>
        <mxCell id="0" />
        <mxCell id="1" parent="0" />
        <mxCell id="_0d8cOwOBnKwjO-6VAjM-41" value="" style="ellipse;html=1;shape=startState;fillColor=#000000;strokeColor=#ff0000;" parent="1" vertex="1">
          <mxGeometry x="515" y="370" width="30" height="30" as="geometry" />
        </mxCell>
        <mxCell id="_0d8cOwOBnKwjO-6VAjM-42" value="" style="edgeStyle=orthogonalEdgeStyle;html=1;verticalAlign=bottom;endArrow=open;endSize=8;strokeColor=#ff0000;entryX=0.5;entryY=0;entryDx=0;entryDy=0;exitX=0.496;exitY=0.881;exitDx=0;exitDy=0;exitPerimeter=0;" parent="1" source="_0d8cOwOBnKwjO-6VAjM-41" target="_0d8cOwOBnKwjO-6VAjM-43" edge="1">
          <mxGeometry relative="1" as="geometry">
            <mxPoint x="525" y="440" as="targetPoint" />
          </mxGeometry>
        </mxCell>
        <mxCell id="_0d8cOwOBnKwjO-6VAjM-43" value="set start condition" style="rounded=1;whiteSpace=wrap;html=1;arcSize=40;fontColor=#000000;fillColor=#ffffc0;strokeColor=#ff0000;" parent="1" vertex="1">
          <mxGeometry x="470" y="430" width="120" height="40" as="geometry" />
        </mxCell>
        <mxCell id="_0d8cOwOBnKwjO-6VAjM-44" value="" style="edgeStyle=orthogonalEdgeStyle;html=1;verticalAlign=bottom;endArrow=open;endSize=8;strokeColor=#ff0000;entryX=0.5;entryY=0;entryDx=0;entryDy=0;" parent="1" source="_0d8cOwOBnKwjO-6VAjM-43" target="_0d8cOwOBnKwjO-6VAjM-45" edge="1">
          <mxGeometry relative="1" as="geometry">
            <mxPoint x="525" y="550" as="targetPoint" />
          </mxGeometry>
        </mxCell>
        <mxCell id="_0d8cOwOBnKwjO-6VAjM-49" style="edgeStyle=orthogonalEdgeStyle;rounded=0;orthogonalLoop=1;jettySize=auto;html=1;entryX=0.5;entryY=0;entryDx=0;entryDy=0;endArrow=open;endFill=0;fillColor=#f8cecc;strokeColor=#FF0000;endSize=8;" parent="1" source="_0d8cOwOBnKwjO-6VAjM-45" target="_0d8cOwOBnKwjO-6VAjM-46" edge="1">
          <mxGeometry relative="1" as="geometry" />
        </mxCell>
        <mxCell id="_0d8cOwOBnKwjO-6VAjM-45" value="loop low" style="rounded=1;whiteSpace=wrap;html=1;arcSize=40;fontColor=#000000;fillColor=#ffffc0;strokeColor=#ff0000;" parent="1" vertex="1">
          <mxGeometry x="470" y="500" width="120" height="40" as="geometry" />
        </mxCell>
        <mxCell id="_0d8cOwOBnKwjO-6VAjM-46" value="end interation" style="rhombus;whiteSpace=wrap;html=1;fillColor=#ffffc0;strokeColor=#ff0000;" parent="1" vertex="1">
          <mxGeometry x="480" y="570" width="100" height="60" as="geometry" />
        </mxCell>
        <mxCell id="_0d8cOwOBnKwjO-6VAjM-47" value="no" style="edgeStyle=orthogonalEdgeStyle;html=1;align=left;verticalAlign=bottom;endArrow=open;endSize=8;strokeColor=#ff0000;entryX=1;entryY=0.5;entryDx=0;entryDy=0;exitX=1;exitY=0.5;exitDx=0;exitDy=0;" parent="1" source="_0d8cOwOBnKwjO-6VAjM-46" target="_0d8cOwOBnKwjO-6VAjM-45" edge="1">
          <mxGeometry x="-0.875" relative="1" as="geometry">
            <mxPoint x="660" y="520" as="targetPoint" />
            <Array as="points">
              <mxPoint x="630" y="600" />
              <mxPoint x="630" y="520" />
            </Array>
            <mxPoint as="offset" />
          </mxGeometry>
        </mxCell>
        <mxCell id="_0d8cOwOBnKwjO-6VAjM-48" value="yes" style="edgeStyle=orthogonalEdgeStyle;html=1;align=left;verticalAlign=top;endArrow=open;endSize=8;strokeColor=#ff0000;entryX=0.5;entryY=0;entryDx=0;entryDy=0;" parent="1" source="_0d8cOwOBnKwjO-6VAjM-46" target="_0d8cOwOBnKwjO-6VAjM-51" edge="1">
          <mxGeometry x="-1" relative="1" as="geometry">
            <mxPoint x="530" y="660" as="targetPoint" />
          </mxGeometry>
        </mxCell>
        <mxCell id="_0d8cOwOBnKwjO-6VAjM-57" style="edgeStyle=orthogonalEdgeStyle;rounded=1;orthogonalLoop=1;jettySize=auto;html=1;entryX=0;entryY=0.5;entryDx=0;entryDy=0;endArrow=open;endFill=0;endSize=8;strokeColor=#FF0000;" parent="1" source="_0d8cOwOBnKwjO-6VAjM-51" target="_0d8cOwOBnKwjO-6VAjM-53" edge="1">
          <mxGeometry relative="1" as="geometry">
            <Array as="points">
              <mxPoint x="650" y="680" />
              <mxPoint x="650" y="520" />
            </Array>
          </mxGeometry>
        </mxCell>
        <mxCell id="_0d8cOwOBnKwjO-6VAjM-51" value="set pin high" style="rounded=1;whiteSpace=wrap;html=1;arcSize=40;fontColor=#000000;fillColor=#ffffc0;strokeColor=#ff0000;" parent="1" vertex="1">
          <mxGeometry x="470" y="660" width="120" height="40" as="geometry" />
        </mxCell>
        <mxCell id="_0d8cOwOBnKwjO-6VAjM-52" style="edgeStyle=orthogonalEdgeStyle;rounded=0;orthogonalLoop=1;jettySize=auto;html=1;entryX=0.5;entryY=0;entryDx=0;entryDy=0;endArrow=open;endFill=0;fillColor=#f8cecc;strokeColor=#FF0000;endSize=8;" parent="1" source="_0d8cOwOBnKwjO-6VAjM-53" target="_0d8cOwOBnKwjO-6VAjM-54" edge="1">
          <mxGeometry relative="1" as="geometry" />
        </mxCell>
        <mxCell id="_0d8cOwOBnKwjO-6VAjM-53" value="loop high" style="rounded=1;whiteSpace=wrap;html=1;arcSize=40;fontColor=#000000;fillColor=#ffffc0;strokeColor=#ff0000;" parent="1" vertex="1">
          <mxGeometry x="670" y="500" width="120" height="40" as="geometry" />
        </mxCell>
        <mxCell id="_0d8cOwOBnKwjO-6VAjM-54" value="end interation" style="rhombus;whiteSpace=wrap;html=1;fillColor=#ffffc0;strokeColor=#ff0000;" parent="1" vertex="1">
          <mxGeometry x="680" y="570" width="100" height="60" as="geometry" />
        </mxCell>
        <mxCell id="_0d8cOwOBnKwjO-6VAjM-55" value="no" style="edgeStyle=orthogonalEdgeStyle;html=1;align=left;verticalAlign=bottom;endArrow=open;endSize=8;strokeColor=#ff0000;entryX=1;entryY=0.5;entryDx=0;entryDy=0;exitX=1;exitY=0.5;exitDx=0;exitDy=0;" parent="1" source="_0d8cOwOBnKwjO-6VAjM-54" target="_0d8cOwOBnKwjO-6VAjM-53" edge="1">
          <mxGeometry x="-0.875" relative="1" as="geometry">
            <mxPoint x="860" y="520" as="targetPoint" />
            <Array as="points">
              <mxPoint x="830" y="600" />
              <mxPoint x="830" y="520" />
            </Array>
            <mxPoint as="offset" />
          </mxGeometry>
        </mxCell>
        <mxCell id="_0d8cOwOBnKwjO-6VAjM-56" value="yes" style="edgeStyle=orthogonalEdgeStyle;html=1;align=left;verticalAlign=top;endArrow=open;endSize=8;strokeColor=#ff0000;entryX=0.5;entryY=0;entryDx=0;entryDy=0;" parent="1" source="_0d8cOwOBnKwjO-6VAjM-54" target="_0d8cOwOBnKwjO-6VAjM-58" edge="1">
          <mxGeometry x="-1" relative="1" as="geometry">
            <mxPoint x="730" y="660" as="targetPoint" />
          </mxGeometry>
        </mxCell>
        <mxCell id="_0d8cOwOBnKwjO-6VAjM-62" style="edgeStyle=orthogonalEdgeStyle;rounded=1;orthogonalLoop=1;jettySize=auto;html=1;entryX=0;entryY=0.5;entryDx=0;entryDy=0;endArrow=open;endFill=0;endSize=8;strokeColor=#FF0000;" parent="1" source="_0d8cOwOBnKwjO-6VAjM-58" target="_0d8cOwOBnKwjO-6VAjM-59" edge="1">
          <mxGeometry relative="1" as="geometry" />
        </mxCell>
        <mxCell id="_0d8cOwOBnKwjO-6VAjM-58" value="set pin low" style="rounded=1;whiteSpace=wrap;html=1;arcSize=40;fontColor=#000000;fillColor=#ffffc0;strokeColor=#ff0000;" parent="1" vertex="1">
          <mxGeometry x="670" y="660" width="120" height="40" as="geometry" />
        </mxCell>
        <mxCell id="_0d8cOwOBnKwjO-6VAjM-99" value="no" style="edgeStyle=orthogonalEdgeStyle;rounded=1;orthogonalLoop=1;jettySize=auto;html=1;entryX=0;entryY=0.5;entryDx=0;entryDy=0;labelBackgroundColor=none;endArrow=open;endFill=0;endSize=8;strokeColor=#FF0000;align=right;verticalAlign=bottom;" parent="1" source="_0d8cOwOBnKwjO-6VAjM-59" target="_0d8cOwOBnKwjO-6VAjM-97" edge="1">
          <mxGeometry x="-0.7495" relative="1" as="geometry">
            <mxPoint as="offset" />
          </mxGeometry>
        </mxCell>
        <mxCell id="_0d8cOwOBnKwjO-6VAjM-59" value="rise buttom&lt;br&gt;pressed" style="rhombus;whiteSpace=wrap;html=1;fillColor=#ffffc0;strokeColor=#ff0000;" parent="1" vertex="1">
          <mxGeometry x="820" y="650" width="120" height="60" as="geometry" />
        </mxCell>
        <mxCell id="_0d8cOwOBnKwjO-6VAjM-61" value="yes" style="edgeStyle=orthogonalEdgeStyle;html=1;align=left;verticalAlign=top;endArrow=open;endSize=8;strokeColor=#ff0000;entryX=1;entryY=0.5;entryDx=0;entryDy=0;" parent="1" source="_0d8cOwOBnKwjO-6VAjM-59" target="_0d8cOwOBnKwjO-6VAjM-68" edge="1">
          <mxGeometry x="-1" relative="1" as="geometry">
            <mxPoint x="879.9999999999998" y="750" as="targetPoint" />
            <Array as="points">
              <mxPoint x="880" y="770" />
            </Array>
          </mxGeometry>
        </mxCell>
        <mxCell id="_0d8cOwOBnKwjO-6VAjM-78" style="edgeStyle=orthogonalEdgeStyle;rounded=1;orthogonalLoop=1;jettySize=auto;html=1;labelBackgroundColor=none;endArrow=open;endFill=0;endSize=8;strokeColor=#FF0000;align=left;" parent="1" source="_0d8cOwOBnKwjO-6VAjM-66" target="_0d8cOwOBnKwjO-6VAjM-73" edge="1">
          <mxGeometry relative="1" as="geometry" />
        </mxCell>
        <mxCell id="_0d8cOwOBnKwjO-6VAjM-66" value="rise duty cycle param" style="rounded=1;whiteSpace=wrap;html=1;arcSize=40;fontColor=#000000;fillColor=#ffffc0;strokeColor=#ff0000;" parent="1" vertex="1">
          <mxGeometry x="584.5" y="750" width="135" height="40" as="geometry" />
        </mxCell>
        <mxCell id="_0d8cOwOBnKwjO-6VAjM-92" style="edgeStyle=orthogonalEdgeStyle;rounded=1;orthogonalLoop=1;jettySize=auto;html=1;entryX=1;entryY=0.5;entryDx=0;entryDy=0;labelBackgroundColor=none;endArrow=open;endFill=0;endSize=8;strokeColor=#FF0000;align=right;" parent="1" source="_0d8cOwOBnKwjO-6VAjM-67" target="_0d8cOwOBnKwjO-6VAjM-74" edge="1">
          <mxGeometry relative="1" as="geometry" />
        </mxCell>
        <mxCell id="_0d8cOwOBnKwjO-6VAjM-67" value="down duty cycle param" style="rounded=1;whiteSpace=wrap;html=1;arcSize=40;fontColor=#000000;fillColor=#ffffc0;strokeColor=#ff0000;" parent="1" vertex="1">
          <mxGeometry x="584.5" y="826" width="135" height="40" as="geometry" />
        </mxCell>
        <mxCell id="_0d8cOwOBnKwjO-6VAjM-71" value="yes" style="edgeStyle=orthogonalEdgeStyle;rounded=1;orthogonalLoop=1;jettySize=auto;html=1;entryX=1;entryY=0.5;entryDx=0;entryDy=0;labelBackgroundColor=none;endArrow=open;endFill=0;endSize=8;strokeColor=#FF0000;verticalAlign=bottom;align=left;" parent="1" source="_0d8cOwOBnKwjO-6VAjM-68" target="_0d8cOwOBnKwjO-6VAjM-66" edge="1">
          <mxGeometry x="0.4545" relative="1" as="geometry">
            <mxPoint as="offset" />
          </mxGeometry>
        </mxCell>
        <mxCell id="_0d8cOwOBnKwjO-6VAjM-95" style="edgeStyle=orthogonalEdgeStyle;rounded=1;orthogonalLoop=1;jettySize=auto;html=1;entryX=1;entryY=0.5;entryDx=0;entryDy=0;labelBackgroundColor=none;endArrow=open;endFill=0;endSize=8;strokeColor=#FF0000;align=right;" parent="1" source="_0d8cOwOBnKwjO-6VAjM-68" target="_0d8cOwOBnKwjO-6VAjM-75" edge="1">
          <mxGeometry relative="1" as="geometry">
            <Array as="points">
              <mxPoint x="800" y="720" />
            </Array>
          </mxGeometry>
        </mxCell>
        <mxCell id="_0d8cOwOBnKwjO-6VAjM-96" value="no" style="text;html=1;align=left;verticalAlign=middle;resizable=0;points=[];labelBackgroundColor=#ffffff;" parent="_0d8cOwOBnKwjO-6VAjM-95" vertex="1" connectable="0">
          <mxGeometry x="-0.0984" y="-1" relative="1" as="geometry">
            <mxPoint x="144.76" y="21" as="offset" />
          </mxGeometry>
        </mxCell>
        <mxCell id="_0d8cOwOBnKwjO-6VAjM-68" value="can rise?" style="rhombus;whiteSpace=wrap;html=1;fillColor=#ffffc0;strokeColor=#ff0000;" parent="1" vertex="1">
          <mxGeometry x="760" y="750" width="80" height="40" as="geometry" />
        </mxCell>
        <mxCell id="_0d8cOwOBnKwjO-6VAjM-72" value="yes" style="edgeStyle=orthogonalEdgeStyle;rounded=1;orthogonalLoop=1;jettySize=auto;html=1;entryX=1;entryY=0.5;entryDx=0;entryDy=0;labelBackgroundColor=none;endArrow=open;endFill=0;endSize=8;strokeColor=#FF0000;verticalAlign=bottom;align=left;" parent="1" source="_0d8cOwOBnKwjO-6VAjM-69" target="_0d8cOwOBnKwjO-6VAjM-67" edge="1">
          <mxGeometry relative="1" as="geometry" />
        </mxCell>
        <mxCell id="_0d8cOwOBnKwjO-6VAjM-82" value="no" style="edgeStyle=orthogonalEdgeStyle;rounded=1;orthogonalLoop=1;jettySize=auto;html=1;entryX=0.5;entryY=1;entryDx=0;entryDy=0;labelBackgroundColor=none;endArrow=open;endFill=0;endSize=8;strokeColor=#FF0000;align=left;exitX=0.5;exitY=0;exitDx=0;exitDy=0;" parent="1" source="_0d8cOwOBnKwjO-6VAjM-69" target="_0d8cOwOBnKwjO-6VAjM-75" edge="1">
          <mxGeometry x="-0.9742" relative="1" as="geometry">
            <Array as="points">
              <mxPoint x="870" y="810" />
              <mxPoint x="403" y="810" />
            </Array>
            <mxPoint as="offset" />
          </mxGeometry>
        </mxCell>
        <mxCell id="_0d8cOwOBnKwjO-6VAjM-69" value="can down?" style="rhombus;whiteSpace=wrap;html=1;fillColor=#ffffc0;strokeColor=#ff0000;" parent="1" vertex="1">
          <mxGeometry x="820" y="826" width="100" height="40" as="geometry" />
        </mxCell>
        <mxCell id="_0d8cOwOBnKwjO-6VAjM-89" style="edgeStyle=orthogonalEdgeStyle;rounded=1;orthogonalLoop=1;jettySize=auto;html=1;labelBackgroundColor=none;endArrow=open;endFill=0;endSize=8;strokeColor=#FF0000;align=right;" parent="1" source="_0d8cOwOBnKwjO-6VAjM-73" target="_0d8cOwOBnKwjO-6VAjM-75" edge="1">
          <mxGeometry relative="1" as="geometry" />
        </mxCell>
        <mxCell id="_0d8cOwOBnKwjO-6VAjM-73" value="set calc flag" style="rounded=1;whiteSpace=wrap;html=1;arcSize=40;fontColor=#000000;fillColor=#ffffc0;strokeColor=#ff0000;" parent="1" vertex="1">
          <mxGeometry x="460" y="750" width="95" height="40" as="geometry" />
        </mxCell>
        <mxCell id="_0d8cOwOBnKwjO-6VAjM-90" style="edgeStyle=orthogonalEdgeStyle;rounded=1;orthogonalLoop=1;jettySize=auto;html=1;entryX=0.5;entryY=1;entryDx=0;entryDy=0;labelBackgroundColor=none;endArrow=open;endFill=0;endSize=8;strokeColor=#FF0000;align=right;" parent="1" source="_0d8cOwOBnKwjO-6VAjM-74" target="_0d8cOwOBnKwjO-6VAjM-75" edge="1">
          <mxGeometry relative="1" as="geometry" />
        </mxCell>
        <mxCell id="_0d8cOwOBnKwjO-6VAjM-74" value="set calc flag" style="rounded=1;whiteSpace=wrap;html=1;arcSize=40;fontColor=#000000;fillColor=#ffffc0;strokeColor=#ff0000;" parent="1" vertex="1">
          <mxGeometry x="460" y="826" width="95" height="40" as="geometry" />
        </mxCell>
        <mxCell id="_0d8cOwOBnKwjO-6VAjM-85" value="true" style="edgeStyle=orthogonalEdgeStyle;rounded=1;orthogonalLoop=1;jettySize=auto;html=1;entryX=0.5;entryY=1;entryDx=0;entryDy=0;labelBackgroundColor=none;endArrow=open;endFill=0;endSize=8;strokeColor=#FF0000;align=right;" parent="1" source="_0d8cOwOBnKwjO-6VAjM-75" target="_0d8cOwOBnKwjO-6VAjM-83" edge="1">
          <mxGeometry y="3" relative="1" as="geometry">
            <mxPoint x="1" as="offset" />
          </mxGeometry>
        </mxCell>
        <mxCell id="_0d8cOwOBnKwjO-6VAjM-91" value="false" style="edgeStyle=orthogonalEdgeStyle;rounded=1;orthogonalLoop=1;jettySize=auto;html=1;entryX=0;entryY=0.5;entryDx=0;entryDy=0;labelBackgroundColor=none;endArrow=open;endFill=0;endSize=8;strokeColor=#FF0000;align=right;verticalAlign=middle;" parent="1" source="_0d8cOwOBnKwjO-6VAjM-75" target="_0d8cOwOBnKwjO-6VAjM-45" edge="1">
          <mxGeometry x="-0.8255" y="-34" relative="1" as="geometry">
            <Array as="points">
              <mxPoint x="330" y="720" />
              <mxPoint x="330" y="520" />
            </Array>
            <mxPoint x="-2" y="10" as="offset" />
          </mxGeometry>
        </mxCell>
        <mxCell id="_0d8cOwOBnKwjO-6VAjM-75" value="calc flag" style="rhombus;whiteSpace=wrap;html=1;fillColor=#ffffc0;strokeColor=#ff0000;" parent="1" vertex="1">
          <mxGeometry x="362.5" y="700" width="80" height="40" as="geometry" />
        </mxCell>
        <mxCell id="_0d8cOwOBnKwjO-6VAjM-86" style="edgeStyle=orthogonalEdgeStyle;rounded=1;orthogonalLoop=1;jettySize=auto;html=1;entryX=0.5;entryY=1;entryDx=0;entryDy=0;labelBackgroundColor=none;endArrow=open;endFill=0;endSize=8;strokeColor=#FF0000;align=right;" parent="1" source="_0d8cOwOBnKwjO-6VAjM-83" target="_0d8cOwOBnKwjO-6VAjM-84" edge="1">
          <mxGeometry relative="1" as="geometry" />
        </mxCell>
        <mxCell id="_0d8cOwOBnKwjO-6VAjM-83" value="clear calc flag" style="rounded=1;whiteSpace=wrap;html=1;arcSize=40;fontColor=#000000;fillColor=#ffffc0;strokeColor=#ff0000;" parent="1" vertex="1">
          <mxGeometry x="355" y="620" width="95" height="40" as="geometry" />
        </mxCell>
        <mxCell id="_0d8cOwOBnKwjO-6VAjM-87" style="edgeStyle=orthogonalEdgeStyle;rounded=1;orthogonalLoop=1;jettySize=auto;html=1;entryX=0;entryY=0.5;entryDx=0;entryDy=0;labelBackgroundColor=none;endArrow=open;endFill=0;endSize=8;strokeColor=#FF0000;align=right;exitX=0.5;exitY=0;exitDx=0;exitDy=0;" parent="1" source="_0d8cOwOBnKwjO-6VAjM-84" target="_0d8cOwOBnKwjO-6VAjM-45" edge="1">
          <mxGeometry relative="1" as="geometry">
            <Array as="points">
              <mxPoint x="403" y="520" />
            </Array>
          </mxGeometry>
        </mxCell>
        <mxCell id="_0d8cOwOBnKwjO-6VAjM-84" value="calc params" style="rounded=1;whiteSpace=wrap;html=1;arcSize=40;fontColor=#000000;fillColor=#ffffc0;strokeColor=#ff0000;" parent="1" vertex="1">
          <mxGeometry x="355" y="550" width="95" height="40" as="geometry" />
        </mxCell>
        <mxCell id="_0d8cOwOBnKwjO-6VAjM-98" style="edgeStyle=orthogonalEdgeStyle;rounded=1;orthogonalLoop=1;jettySize=auto;html=1;entryX=1;entryY=0.5;entryDx=0;entryDy=0;labelBackgroundColor=none;endArrow=open;endFill=0;endSize=8;strokeColor=#FF0000;align=right;" parent="1" source="_0d8cOwOBnKwjO-6VAjM-97" target="_0d8cOwOBnKwjO-6VAjM-69" edge="1">
          <mxGeometry relative="1" as="geometry">
            <Array as="points">
              <mxPoint x="960" y="846" />
            </Array>
          </mxGeometry>
        </mxCell>
        <mxCell id="_0d8cOwOBnKwjO-6VAjM-100" value="yes" style="text;html=1;align=left;verticalAlign=top;resizable=0;points=[];labelBackgroundColor=#ffffff;" parent="_0d8cOwOBnKwjO-6VAjM-98" vertex="1" connectable="0">
          <mxGeometry x="-0.7068" relative="1" as="geometry">
            <mxPoint y="-35.86" as="offset" />
          </mxGeometry>
        </mxCell>
        <mxCell id="_0d8cOwOBnKwjO-6VAjM-101" style="edgeStyle=orthogonalEdgeStyle;rounded=1;orthogonalLoop=1;jettySize=auto;html=1;entryX=1;entryY=0.5;entryDx=0;entryDy=0;labelBackgroundColor=none;endArrow=open;endFill=0;endSize=8;strokeColor=#FF0000;align=right;" parent="1" source="_0d8cOwOBnKwjO-6VAjM-97" target="_0d8cOwOBnKwjO-6VAjM-45" edge="1">
          <mxGeometry relative="1" as="geometry">
            <Array as="points">
              <mxPoint x="960" y="480" />
              <mxPoint x="630" y="480" />
              <mxPoint x="630" y="520" />
            </Array>
          </mxGeometry>
        </mxCell>
        <mxCell id="_0d8cOwOBnKwjO-6VAjM-102" value="no" style="text;html=1;align=left;verticalAlign=middle;resizable=0;points=[];labelBackgroundColor=#ffffff;" parent="_0d8cOwOBnKwjO-6VAjM-101" vertex="1" connectable="0">
          <mxGeometry x="-0.9464" y="-3" relative="1" as="geometry">
            <mxPoint as="offset" />
          </mxGeometry>
        </mxCell>
        <mxCell id="_0d8cOwOBnKwjO-6VAjM-97" value="down buttom&lt;br&gt;pressed" style="rhombus;whiteSpace=wrap;html=1;fillColor=#ffffc0;strokeColor=#ff0000;" parent="1" vertex="1">
          <mxGeometry x="900" y="560" width="120" height="60" as="geometry" />
        </mxCell>
        <mxCell id="_0d8cOwOBnKwjO-6VAjM-104" style="rounded=1;orthogonalLoop=1;jettySize=auto;html=1;entryX=1;entryY=0.5;entryDx=0;entryDy=0;labelBackgroundColor=none;endArrow=none;endFill=0;endSize=8;strokeColor=#FF0000;align=right;dashed=1;" parent="1" source="_0d8cOwOBnKwjO-6VAjM-103" target="_0d8cOwOBnKwjO-6VAjM-43" edge="1">
          <mxGeometry relative="1" as="geometry" />
        </mxCell>
        <mxCell id="_0d8cOwOBnKwjO-6VAjM-103" value="&lt;br&gt;the system start condition is duty cycle 50%" style="shape=note;whiteSpace=wrap;html=1;size=14;verticalAlign=top;align=center;spacingTop=-6;" parent="1" vertex="1">
          <mxGeometry x="650" y="410" width="110" height="60" as="geometry" />
        </mxCell>
        <mxCell id="_0d8cOwOBnKwjO-6VAjM-106" style="edgeStyle=none;rounded=1;orthogonalLoop=1;jettySize=auto;html=1;entryX=0.345;entryY=0.991;entryDx=0;entryDy=0;entryPerimeter=0;dashed=1;labelBackgroundColor=none;endArrow=none;endFill=0;endSize=8;strokeColor=#FF0000;align=right;" parent="1" source="_0d8cOwOBnKwjO-6VAjM-105" target="_0d8cOwOBnKwjO-6VAjM-74" edge="1">
          <mxGeometry relative="1" as="geometry" />
        </mxCell>
        <mxCell id="_0d8cOwOBnKwjO-6VAjM-105" value="&lt;br&gt;set flag means set it to true and clear means set it to false in all parts of this diagram&amp;nbsp;" style="shape=note;whiteSpace=wrap;html=1;size=14;verticalAlign=top;align=center;spacingTop=-6;" parent="1" vertex="1">
          <mxGeometry x="320" y="866" width="120" height="94" as="geometry" />
        </mxCell>
      </root>
    </mxGraphModel>
  </diagram>
</mxfile>
